Coordinates
version=1
nRows=9
nColumns=63
inDegrees=yes

Units are S.I. units (second, meters, Newtons, ...)
If the header above contains a line with 'inDegrees', this indicates whether rotational values are in degrees (yes) or radians (no).

endheader
time	pelvis_tilt	pelvis_list	pelvis_rotation	pelvis_tx	pelvis_ty	pelvis_tz	hip_flexion_r	hip_adduction_r	hip_rotation_r	knee_angle_r	knee_angle_r_beta	ankle_angle_r	subtalar_angle_r	mtp_angle_r	hip_flexion_l	hip_adduction_l	hip_rotation_l	knee_angle_l	knee_angle_l_beta	ankle_angle_l	subtalar_angle_l	mtp_angle_l	L5_S1_Flex_Ext	L5_S1_Lat_Bending	L5_S1_axial_rotation	L4_L5_Flex_Ext	L4_L5_Lat_Bending	L4_L5_axial_rotation	L3_L4_Flex_Ext	L3_L4_Lat_Bending	L3_L4_axial_rotation	L2_L3_Flex_Ext	L2_L3_Lat_Bending	L2_L3_axial_rotation	L1_L2_Flex_Ext	L1_L2_Lat_Bending	L1_L2_axial_rotation	L1_T12_Flex_Ext	L1_T12_Lat_Bending	L1_T12_axial_rotation	Abs_r3	Abs_r2	Abs_r1	Abs_t1	Abs_t2	neck_flexion	neck_bending	neck_rotation	arm_flex_r	arm_add_r	arm_rot_r	elbow_flex_r	pro_sup_r	wrist_flex_r	wrist_dev_r	arm_flex_l	arm_add_l	arm_rot_l	elbow_flex_l	pro_sup_l	wrist_flex_l	wrist_dev_l
      6.81355932	      1.58997327	     -0.96118194	     86.45020452	      0.16477077	      0.92616831	      0.46089615	     -4.92002219	      2.45004531	    -15.46148964	      9.46499291	      0.16519529	     24.50091978	     -7.26288383	      0.00000000	     -6.66941441	     -2.58369358	      2.85519145	      2.84408322	      0.04963862	     31.36398213	     -3.14399662	      0.00000000	     -0.15079790	      1.04564454	      0.05910077	     -0.28004678	      1.39070724	      0.06279457	     -0.24774587	      2.54238013	      0.06279457	     -0.17234692	      2.54238013	      0.05171317	     -0.14003093	      2.13227834	      0.04801938	     -0.08616592	      1.61970339	      0.04432558	     -1.07713433	     11.82854014	      0.32870076	      0.00000000	      0.00000000	     17.71333130	     -4.75240213	      8.35696106	      1.71915417	    -14.30659112	    143.33939962	      5.15942812	      3.44804284	      0.42463647	    -10.43366718	      0.94128544	     -8.77102193	    103.90908920	     15.31753595	     14.80325919	     -7.51553472	     -8.10362522
      6.83050847	      1.45651325	     -0.66019860	     87.04853360	      0.16485556	      0.92667630	      0.45999132	     -5.44340839	      2.44440159	    -15.80881680	      9.26592476	      0.16172090	     24.62078999	     -7.47151437	      0.00000000	     -6.95069183	     -2.57345232	      3.03604665	      2.98223743	      0.05204986	     31.15240626	     -2.85781000	      0.00000000	     -0.14393759	      0.99702392	      0.21443390	     -0.26730649	      1.32604181	      0.22783601	     -0.23647506	      2.42416396	      0.22783601	     -0.16450627	      2.42416396	      0.18762966	     -0.13366044	      2.03313118	      0.17422754	     -0.08224594	      1.54439005	      0.16082542	     -1.02813178	     11.27853400	      1.19261700	      0.00000000	      0.00000000	     17.61966096	     -4.62585519	      7.95593050	      1.30609427	    -13.84419360	    143.24126647	      4.65592195	      3.27855119	      0.69669644	    -10.50901383	      1.21000592	     -9.14375834	    104.27160372	     15.47313185	     15.08854864	     -7.62409933	     -8.25856846
      6.84745763	      1.13970565	     -0.28192262	     87.82212287	      0.16501087	      0.92713223	      0.45841832	     -6.17846822	      2.30534998	    -16.07340096	      8.91131743	      0.15553183	     24.79107497	     -7.48234798	      0.00000000	     -7.40712982	     -2.41386536	      3.12125965	      2.93856604	      0.05128765	     30.96870908	     -2.19990362	      0.00000000	     -0.14538301	      0.92149412	      0.33183473	     -0.26999078	      1.22558718	      0.35257440	     -0.23884974	      2.24052081	      0.35257440	     -0.16615824	      2.24052081	      0.29035539	     -0.13500266	      1.87911081	      0.26961572	     -0.08307185	      1.42739440	      0.24887604	     -1.03845628	     10.42412581	      1.84556520	      0.00000000	      0.00000000	     17.82818738	     -5.01376825	      6.36041602	      0.63245866	    -13.21086061	    143.11184552	      3.61849432	      2.84357922	      1.78696663	    -10.48432595	      1.76667085	     -9.93043518	    106.15187246	     16.12857107	     16.46915364	     -8.23053904	     -8.84543356
      6.86440678	      0.95791001	     -0.15877809	     88.35164588	      0.16494356	      0.92744388	      0.45738571	     -6.50372815	      2.25272257	    -15.96970960	      8.72398309	      0.15226223	     25.22979370	     -7.46172153	      0.00000000	     -7.55202996	     -2.34836811	      3.41579500	      2.95908953	      0.05164586	     30.80351894	     -1.82816168	      0.00000000	     -0.12759020	      0.88082657	      0.43855635	     -0.23694777	      1.17149934	      0.46596612	     -0.20961795	      2.14164172	      0.46596612	     -0.14582284	      2.14164172	      0.38373680	     -0.11848026	      1.79618154	      0.35632703	     -0.07290504	      1.36440036	      0.32891726	     -0.91136407	      9.96408632	      2.43911883	      0.00000000	      0.00000000	     18.19328204	     -5.08610677	      6.15565441	      0.33706922	    -12.89488617	    143.05697611	      3.17118821	      2.73168244	      1.82233496	    -10.68392751	      1.91472586	    -10.24067012	    106.47953202	     16.19731436	     16.67759556	     -8.28485730	     -9.13782539
      6.88135593	      0.71834052	      0.08191361	     88.92397431	      0.16475104	      0.92791384	      0.45618286	     -6.96328669	      2.14618042	    -15.67873089	      8.52853224	      0.14885097	     25.82196960	     -7.33875817	      0.00000000	     -7.84771317	     -2.21944071	      3.80799736	      2.89473299	      0.05052262	     30.66762691	     -1.36650468	      0.00000000	     -0.11884807	      0.83252732	      0.52723518	     -0.22071275	      1.10726133	      0.56018737	     -0.19525549	      2.02420692	      0.56018737	     -0.13583146	      2.02420692	      0.46133078	     -0.11036232	      1.69768971	      0.42837858	     -0.06790979	      1.28958482	      0.39542638	     -0.84891987	      9.41771554	      2.93232388	      0.00000000	      0.00000000	     18.55906998	     -5.18366964	      5.64643731	     -0.02518094	    -12.57936237	    143.00286190	      2.68940427	      2.58821510	      1.81377317	    -11.02900983	      2.14835682	    -10.69393054	    107.06402482	     16.48751032	     17.10541174	     -8.24918944	     -9.50061377
      6.89830508	      0.39081072	      0.55088839	     89.49163913	      0.16440890	      0.92878311	      0.45520025	     -7.63615391	      1.93870117	    -15.59635907	      8.32667651	      0.14532792	     26.23408805	     -7.15867614	      0.00000000	     -8.43571582	     -1.96672716	      4.03274312	      2.64226406	      0.04611621	     30.48834588	     -0.83424899	      0.00000000	     -0.14185390	      0.77384517	      0.62946949	     -0.26343687	      1.02921408	      0.66881133	     -0.23305176	      1.88152715	      0.66881133	     -0.16212482	      1.88152715	      0.55078580	     -0.13172553	      1.57802507	      0.51144396	     -0.08105532	      1.19868617	      0.47210212	     -1.01324819	      8.75389134	      3.50092045	      0.00000000	      0.00000000	     18.88016950	     -5.47195348	      4.33611730	     -0.37309846	    -12.26889316	    142.93492045	      2.30407981	      2.35550254	      1.60812090	    -11.64735779	      2.82175532	    -11.28549914	    108.73947016	     17.08001494	     18.23341301	     -8.12701355	     -9.52906558
      6.91525424	      0.38616194	      0.74066860	     89.86858636	      0.16375951	      0.92946107	      0.45456153	     -7.92026859	      2.00299851	    -15.16077357	      8.26183524	      0.14419623	     26.78485896	     -6.89884912	      0.00000000	     -8.65090526	     -2.01736084	      4.52891810	      2.53535310	      0.04425026	     30.53356188	     -0.40931018	      0.00000000	     -0.12025898	      0.76650002	      0.68745913	     -0.22333295	      1.01944502	      0.73042532	     -0.19757348	      1.86366814	      0.73042532	     -0.13744399	      1.86366814	      0.60152674	     -0.11167249	      1.56304684	      0.55856054	     -0.06871598	      1.18730853	      0.51559434	     -0.85899787	      8.67080150	      3.82344142	      0.00000000	      0.00000000	     19.05255601	     -5.48256170	      4.18399386	     -0.35824837	    -12.25954426	    142.89958116	      2.32908460	      2.30993638	      1.48760897	    -11.74340384	      2.98301472	    -11.31616858	    109.20716907	     17.15629735	     18.47744538	     -8.06875334	     -9.13295866
      6.93220339	      0.29561899	      1.19868280	     90.30790536	      0.16306077	      0.93057306	      0.45403392	     -8.54991758	      1.98018111	    -15.33447543	      8.07087798	      0.14086339	     27.05962974	     -6.39610111	      0.00000000	     -9.20266945	     -1.98645614	      4.88544399	      2.26447805	      0.03952260	     30.38655902	      0.09557850	      0.00000000	     -0.13497454	      0.74869307	      0.78178453	     -0.25066123	      0.99576179	      0.83064606	     -0.22174968	      1.82037234	      0.83064606	     -0.15426241	      1.82037234	      0.68406146	     -0.12533736	      1.52673492	      0.63519993	     -0.07712445	      1.15972557	      0.58633839	     -0.96410967	      8.46936580	      4.34805100	      0.00000000	      0.00000000	     19.20013964	     -5.55579634	      3.45643867	     -0.46118932	    -12.18906612	    142.39625887	      2.34256295	      2.22261166	      0.72120222	    -12.22099343	      4.02415767	    -11.39285509	    111.93801973	     17.57021605	     19.65619177	     -7.53654205	     -6.78588617
      6.94915254	      0.10600101	      1.57042575	     90.80071701	      0.16216985	      0.93154689	      0.45363676	     -9.09146520	      1.85742490	    -15.53600576	      7.90696804	      0.13800263	     27.12909610	     -6.28816723	      0.00000000	     -9.66979841	     -1.85681760	      5.32565265	      1.95549813	      0.03412988	     30.12873951	      0.51889471	      0.00000000	     -0.14200307	      0.72342266	      0.80358517	     -0.26371390	      0.96215214	      0.85380924	     -0.23329684	      1.75892986	      0.85380924	     -0.16229531	      1.75892986	      0.70313702	     -0.13186405	      1.47520349	      0.65291295	     -0.08114055	      1.12058170	      0.60268888	     -1.01431372	      8.18350185	      4.46929964	      0.00000000	      0.00000000	     19.36830199	     -5.27186780	      3.33831840	     -0.34716322	    -12.13345603	    141.99367678	      2.33215367	      2.15467682	      0.34279020	    -12.71968998	      4.59878268	    -11.54334381	    112.89471510	     18.07955414	     19.83086934	     -7.11398568	     -5.43328442
